<?xml version="1.0" standalone="no"?>
<!DOCTYPE svg PUBLIC "-//W3C//DTD SVG 1.0//EN" "http://www.w3.org/TR/2001/REC-SVG-20010904/DTD/svg10.dtd">
<svg xmlns="http://www.w3.org/2000/svg" xmlns:xlink="http://www.w3.org/1999/xlink" id="body_1" width="102" height="77">

<defs>
    <radialGradient cx="-75%" cy="97.12575%" r="127.08058%" gradientUnits="objectBoundingBox" id="1">
        <stop offset="0%" stop-color="#FFFFFF" stop-opacity="1"/>
        <stop offset="100%" stop-color="#FFFFFF" stop-opacity="0"/>
    </radialGradient>
<mask id="259">
<path  transform="matrix(1 0 0 0.26786 0 27.638)"   d="M8 37.75C 8 41.461605 6.5239973 45.02499 3.899495 47.649494C 1.2749926 50.274 -2.2883933 51.75 -6 51.75C -9.711607 51.75 -13.274993 50.274 -15.899495 47.649494C -18.523998 45.02499 -20 41.461605 -20 37.75C -20 34.038395 -18.523998 30.475008 -15.899495 27.850506C -13.274993 25.226004 -9.711607 23.75 -6 23.75C -2.2883933 23.75 1.2749926 25.226004 3.899495 27.850506C 6.5239973 30.475008 8 34.038395 8 37.75z" fill="white"/>
</mask>
    <radialGradient cx="0%" cy="99.30141%" r="127.08058%" gradientUnits="objectBoundingBox" id="762">
        <stop offset="0%" stop-color="#FDF5E5" stop-opacity="1"/>
        <stop offset="100%" stop-color="#EAA50F" stop-opacity="1"/>
    </radialGradient>
<mask id="1020">
<path  transform="matrix(-1.6013 -1.8352 1.2194 -1.0259 -720.69 362.56)"   d="M-116.497 307.87C -116.497 315.066 -119.35865 321.97464 -124.447 327.063C -129.53534 332.15134 -136.44398 335.013 -143.64 335.013C -150.83601 335.013 -157.74464 332.15134 -162.833 327.063C -167.92134 321.97464 -170.783 315.066 -170.783 307.87C -170.783 300.67398 -167.92134 293.76535 -162.833 288.677C -157.74464 283.58865 -150.83601 280.727 -143.64 280.727C -136.44398 280.727 -129.53534 283.58865 -124.447 288.677C -119.35865 293.76535 -116.497 300.67398 -116.497 307.87z" fill="white"/>
</mask>
    <radialGradient cx="0%" cy="99.34026%" r="127.08058%" gradientUnits="objectBoundingBox" id="1613">
        <stop offset="0%" stop-color="#FFFFFF" stop-opacity="1"/>
        <stop offset="100%" stop-color="#ECAC21" stop-opacity="1"/>
    </radialGradient>
<mask id="1872">
<path  transform="matrix(-0.07896 -3.4982 1.665 -0.6007 -672.51 33.801)"   d="M-111.777 326.13C -111.777 333.32602 -114.63865 340.23465 -119.727 345.323C -124.815346 350.41135 -131.72398 353.273 -138.92 353.273C -146.11601 353.273 -153.02464 350.41135 -158.11299 345.323C -163.20134 340.23465 -166.063 333.32602 -166.063 326.13C -166.063 318.934 -163.20134 312.02536 -158.11299 306.937C -153.02464 301.84866 -146.11601 298.987 -138.92 298.987C -131.72398 298.987 -124.815346 301.84866 -119.727 306.937C -114.63865 312.02536 -111.777 318.934 -111.777 326.13z" fill="white"/>
</mask>
    <radialGradient cx="-298.87305%" cy="98.114975%" r="127.08056%" gradientUnits="objectBoundingBox" id="2471">
        <stop offset="0%" stop-color="#7F4212" stop-opacity="1"/>
        <stop offset="100%" stop-color="#804D00" stop-opacity="1"/>
    </radialGradient>
<mask id="2740">
<path  transform="matrix(1.6597 -0.75555 0.26288 0.75699 -36.474 40.38)"   d="M20.146011 333.75C 20.146011 355.05383 11.674072 375.5069 -3.3900096 390.57098C -18.454092 405.63507 -38.90716 414.107 -60.21099 414.107C -81.51482 414.107 -101.967896 405.63507 -117.031975 390.57098C -132.09605 375.5069 -140.568 355.05383 -140.568 333.75C -140.568 312.44617 -132.09605 291.9931 -117.031975 276.92902C -101.967896 261.86493 -81.51482 253.393 -60.21099 253.393C -38.90716 253.393 -18.454092 261.86493 -3.3900096 276.92902C 11.674072 291.9931 20.146011 312.44617 20.146011 333.75z" fill="white"/>
</mask>
    <radialGradient cx="-64.80139%" cy="98.3357%" r="127.0806%" gradientUnits="objectBoundingBox" id="3355">
        <stop offset="0%" stop-color="#FFFFFF" stop-opacity="1"/>
        <stop offset="100%" stop-color="#EAA50F" stop-opacity="1"/>
    </radialGradient>
<mask id="3620">
<path  transform="matrix(1.4305 0.07675 0.04043 2.5314 229.17 -597.73)"   d="M48.106995 373.79C 48.106995 394.80856 39.748497 414.98776 24.886127 429.85013C 10.023759 444.7125 -10.155439 453.071 -31.174004 453.071C -52.192566 453.071 -72.37177 444.7125 -87.23414 429.85013C -102.096504 414.98776 -110.455 394.80856 -110.455 373.79C -110.455 352.77145 -102.096504 332.59225 -87.23414 317.7299C -72.37177 302.86752 -52.192566 294.509 -31.174004 294.509C -10.155439 294.509 10.023759 302.86752 24.886127 317.7299C 39.748497 332.59225 48.106995 352.77145 48.106995 373.79z" fill="white"/>
</mask>
    <linearGradient transform="matrix(5.0692 0 0 5.8214 -376.53 -1341.1)"  id="4230" x1="114.5" y1="284.86" x2="116.25" y2="271.61">
        <stop stop-color="#7F4212" offset="0%"/>
        <stop stop-color="#7F4212" offset="100%"/>
    </linearGradient>
</defs>

<g transform="matrix(0.1925 0 0 0.1925 12.499998 -0)">
	<g transform="matrix(1 0 0 1 -0 -80)">
        <path transform="matrix(12.085 0 0 11.906 270.43 -19.34)"  d="M8 37.75C 8 39.089745 5.3316154 40.32772 0.9999995 40.997597C -3.3316162 41.66747 -8.668386 41.66747 -13.000002 40.997597C -17.331617 40.32772 -20 39.089745 -20 37.75C -20 36.410255 -17.331615 35.17228 -13 34.502403C -8.668384 33.83253 -3.3316135 33.83253 1.0000019 34.502403C 5.3316174 35.17228 8 36.410255 8 37.75z" stroke="none" mask="url(#259)" fill="url(#1)"  />
        <path transform="matrix(-1.3466 -0.50576 -0.36701 1.4595 274.23 -244.29)"  d="M-105.71 300.93C -105.70999 317.26202 -110.88342 332.35345 -119.281494 340.51947C -127.67957 348.6855 -138.02643 348.6855 -146.4245 340.51947C -154.82257 332.35345 -159.996 317.26202 -159.996 300.93C -159.99934 284.5942 -154.82664 269.4969 -146.4272 261.32736C -138.02776 253.15784 -127.67824 253.15784 -119.27879 261.32736C -110.87934 269.4969 -105.70665 284.5942 -105.71001 300.93L-105.71001 300.93L-105.71 300.93z" stroke="none" fill="#7F4212" fill-rule="nonzero" />
        <path transform="matrix(-0.89773 -0.33717 -0.24467 0.97301 287.48 -75.603)"  d="M-105.71 300.93C -105.70999 317.26202 -110.88342 332.35345 -119.281494 340.51947C -127.67957 348.6855 -138.02643 348.6855 -146.4245 340.51947C -154.82257 332.35345 -159.996 317.26202 -159.996 300.93C -159.99934 284.5942 -154.82664 269.4969 -146.4272 261.32736C -138.02776 253.15784 -127.67824 253.15784 -119.27879 261.32736C -110.87934 269.4969 -105.70665 284.5942 -105.71001 300.93L-105.71001 300.93L-105.71 300.93z" stroke="none" mask="url(#1020)" fill="url(#762)"  />
        <path transform="matrix(1.3502 -0.29359 0.35378 1.5162 141.18 -254.76)"  d="M-105.71 300.93C -105.70999 317.26202 -110.88342 332.35345 -119.281494 340.51947C -127.67957 348.6855 -138.02643 348.6855 -146.4245 340.51947C -154.82257 332.35345 -159.996 317.26202 -159.996 300.93C -159.99934 284.5942 -154.82664 269.4969 -146.4272 261.32736C -138.02776 253.15784 -127.67824 253.15784 -119.27879 261.32736C -110.87934 269.4969 -105.70665 284.5942 -105.71001 300.93L-105.71001 300.93L-105.71 300.93z" stroke="none" fill="#7F4212" fill-rule="nonzero" />
        <path transform="matrix(0.9001 -0.19573 0.23585 1.0108 126.44 -88.273)"  d="M-105.71 300.93C -105.70999 317.26202 -110.88342 332.35345 -119.281494 340.51947C -127.67957 348.6855 -138.02643 348.6855 -146.4245 340.51947C -154.82257 332.35345 -159.996 317.26202 -159.996 300.93C -159.99934 284.5942 -154.82664 269.4969 -146.4272 261.32736C -138.02776 253.15784 -127.67824 253.15784 -119.27879 261.32736C -110.87934 269.4969 -105.70665 284.5942 -105.71001 300.93L-105.71001 300.93L-105.71 300.93z" stroke="none" mask="url(#1872)" fill="url(#1613)"  />
        <path transform="matrix(1.6786 0.00264 -0.00655 1.4726 248.8 -78.916)"  d="M55.714 279.15C 55.917374 302.609 40.646423 324.35718 15.700937 336.13467C -9.244544 347.9122 -40.037476 347.9122 -64.982956 336.13467C -89.92843 324.35715 -105.19937 302.609 -104.996 279.15C -105.19937 255.69096 -89.92842 233.94283 -64.98294 222.16531C -40.037457 210.38779 -9.244526 210.38779 15.700954 222.16531C 40.64643 233.94283 55.917374 255.69096 55.714005 279.15L55.714005 279.15L55.714 279.15z" stroke="none" mask="url(#2740)" fill="url(#2471)"  />
        <path d="M319.91 225.11C 319.659 281.59302 268.564 323.378 205.79001 318.438C 143.01602 313.498 92.32001 263.706 92.58001 207.228C 92.73366 172.685 111.90301 143.64 141.132 127.417C 150.4452 122.2478 160.779 118.3804 171.845 116.052C 182.838 113.7388 194.552 112.9442 206.70401 113.9002C 222.619 115.1522 237.75601 119.2869 251.48401 125.6822C 261.98602 130.57469 271.66202 136.79019 280.23102 144.0512C 304.644 164.7372 320.058 193.9052 319.919 225.1152L319.919 225.1152L319.91 225.11z" stroke="none" fill="#7F4212" fill-rule="nonzero" />
        <path d="M154.48 154.38C 150.4169 154.12984 146.319 154.4492 142.271 155.32654C 109.888 162.36864 91.944 203.56554 102.15199 247.31454C 104.290596 256.48053 107.471596 265.02554 111.50199 272.75354C 99.68799 285.08554 92.76199 300.45355 92.68599 317.54953C 92.48013 363.84753 142.51999 405.3145 204.456 410.18854C 266.392 415.06256 316.766 381.49454 316.97598 335.19653C 317.0575 316.89154 309.27887 299.31854 296.02 284.48352C 299.42688 278.06982 302.1753 270.93353 304.1185 263.2055C 314.7085 221.0925 297.0994 177.09851 264.8015 164.9675C 242.62552 156.6386 219.3005 165.48166 203.42151 185.4775C 190.58951 167.1055 172.7225 155.3915 154.47551 154.37949L154.47551 154.37949L154.48 154.38z" stroke="#78330D" stroke-width="14.569" stroke-linecap="square" mask="url(#3620)" fill="url(#3355)"  />
        <path transform="matrix(1.7155 0.13497 -0.00696 1.5648 263.46 -233.07)"  d="M-40.714 312.36C -40.667557 321.8504 -43.85666 330.65137 -49.0692 335.4178C -54.281734 340.18423 -60.71728 340.18423 -65.92982 335.4178C -71.14235 330.65137 -74.33145 321.8504 -74.285 312.36C -74.3315 302.86954 -71.1424 294.0685 -65.92985 289.30203C -60.717297 284.53552 -54.28171 284.53552 -49.069157 289.30203C -43.856606 294.0685 -40.66751 302.86954 -40.714005 312.36L-40.714005 312.36L-40.714 312.36z" stroke="none" fill="#FFFFFF" fill-rule="nonzero" />
        <path transform="matrix(1.4146 0.11129 -0.00696 1.5648 238.1 -242.89)"  d="M-37.857 319.86C -37.857 324.58105 -40.44371 328.9435 -44.642746 331.30408C -48.841785 333.6646 -54.015213 333.6646 -58.21425 331.30408C -62.413284 328.9435 -65 324.58105 -65 319.86C -65 315.13892 -62.413284 310.77646 -58.21425 308.4159C -54.015213 306.05536 -48.841785 306.05536 -44.64275 308.4159C -40.443714 310.77646 -37.857002 315.13892 -37.857002 319.86L-37.857002 319.86L-37.857 319.86z" stroke="none" fill="#804D00" fill-rule="nonzero" />
        <path d="M269.4 322.45C 260.4871 342.09802 234.858 354.806 204.661 352.431C 177.146 350.2661 153.49399 336.179 142.907 317.782C 147.6108 340.84402 173.841 360.27902 205.588 362.777C 239.755 365.46512 267.747 347.543 269.4 322.45102L269.4 322.45102L269.4 322.45z" stroke="none" fill="#7F4212" fill-rule="nonzero" />
        <path d="M187.75 286.61C 189.4288 299.981 197.3382 309.86398 206.885 309.51797C 216.25699 309.17868 224.137 299.09598 226.124 285.95798C 220.67319 287.31976 214.69899 288.1815 208.437 288.40958C 200.9942 288.67618 193.97 288.00012 187.75 286.6136L187.75 286.6136L187.75 286.61z" stroke="none" fill="url(#4230)" />
        <path d="M260.72 311.01C 265.7814 312.3529 270.6166 318.4551 272.463 326.53302C 274.1456 333.8929 272.8776 340.84503 269.62662 344.57602C 274.3753 342.15662 276.6274 334.251 274.68643 325.75903C 272.59692 316.61923 266.41913 310.16104 260.72043 311.01004L260.72043 311.01004L260.72 311.01z" stroke="none" fill="#7F4212" fill-rule="nonzero" />
        <path d="M144.34 305.51C 139.4206 306.14795 134.6427 311.7257 132.72499 319.781C 130.97769 327.12122 132.09033 334.476 135.17569 338.802C 130.62009 335.6068 128.5698 327.124 130.58629 318.655C 132.75609 309.54028 138.83958 303.794 144.34029 305.509L144.34029 305.509L144.34 305.51z" stroke="none" fill="#7F4212" fill-rule="nonzero" />
        <path transform="matrix(1.4146 0.11129 -0.00696 1.5648 245.62 -229.63)"  d="M-48.571 312.36C -48.563206 313.8959 -49.44642 315.3182 -50.886124 316.08823C -52.32583 316.85828 -54.101868 316.85828 -55.541573 316.08823C -56.981277 315.3182 -57.86449 313.8959 -57.856697 312.36C -57.86449 310.82407 -56.981277 309.40176 -55.541573 308.63174C -54.101868 307.8617 -52.32583 307.8617 -50.886124 308.63174C -49.44642 309.40176 -48.563206 310.82407 -48.571 312.36z" stroke="none" fill="#FFFFFF" fill-rule="nonzero" />
        <path transform="matrix(-1.7155 -0.13497 -0.00696 1.5648 146.01 -246.78)"  d="M-40.714 312.36C -40.667557 321.8504 -43.85666 330.65137 -49.0692 335.4178C -54.281734 340.18423 -60.71728 340.18423 -65.92982 335.4178C -71.14235 330.65137 -74.33145 321.8504 -74.285 312.36C -74.3315 302.86954 -71.1424 294.0685 -65.92985 289.30203C -60.717297 284.53552 -54.28171 284.53552 -49.069157 289.30203C -43.856606 294.0685 -40.66751 302.86954 -40.714005 312.36L-40.714005 312.36L-40.714 312.36z" stroke="none" fill="#FFFFFF" fill-rule="nonzero" />
        <path transform="matrix(-1.4146 -0.11129 -0.00696 1.5648 171.44 -252.61)"  d="M-37.857 319.86C -37.857 324.58105 -40.44371 328.9435 -44.642746 331.30408C -48.841785 333.6646 -54.015213 333.6646 -58.21425 331.30408C -62.413284 328.9435 -65 324.58105 -65 319.86C -65 315.13892 -62.413284 310.77646 -58.21425 308.4159C -54.015213 306.05536 -48.841785 306.05536 -44.64275 308.4159C -40.443714 310.77646 -37.857002 315.13892 -37.857002 319.86L-37.857002 319.86L-37.857 319.86z" stroke="none" fill="#804D00" fill-rule="nonzero" />
        <path transform="matrix(-1.3171 -0.08549 -0.00648 1.2021 172.95 -133.98)"  d="M-48.571 312.36C -48.563206 313.8959 -49.44642 315.3182 -50.886124 316.08823C -52.32583 316.85828 -54.101868 316.85828 -55.541573 316.08823C -56.981277 315.3182 -57.86449 313.8959 -57.856697 312.36C -57.86449 310.82407 -56.981277 309.40176 -55.541573 308.63174C -54.101868 307.8617 -52.32583 307.8617 -50.886124 308.63174C -49.44642 309.40176 -48.563206 310.82407 -48.571 312.36z" stroke="none" fill="#FFFFFF" fill-rule="nonzero" />
	</g>
</g>
</svg>